<svg xmlns="http://www.w3.org/2000/svg" viewBox="0 0 246.61 241.39"><defs><style>.cls-1{fill:#fff;}.cls-2{fill:#00d7ff;}.cls-3{fill:red;}.cls-4{fill:#000100;}</style></defs><title>stkrs-logo</title><g id="Layer_2" data-name="Layer 2"><g id="Layer_1-2" data-name="Layer 1"><path class="cls-1" d="M151.64,228.1a113.49,113.49,0,0,1-134.53-70,111.69,111.69,0,0,1-7-47A113.85,113.85,0,0,1,88.17,10.32a3.61,3.61,0,0,1,3,.2c13.34,7,26.81,13.72,40,20.9,33.83,18.38,67.38,37.24,100.5,56.86a3.08,3.08,0,0,1,1.62,2.11,115.15,115.15,0,0,1,3.41,25.15C236.56,170.22,201.61,215.31,151.64,228.1Z"/><path class="cls-2" d="M41.34,142.55A7.48,7.48,0,0,0,43.55,145a9.25,9.25,0,0,0,3.12,1.4,14.66,14.66,0,0,0,3.65.45,13.63,13.63,0,0,0,2.84-.31,9.31,9.31,0,0,0,2.71-1,6.18,6.18,0,0,0,2-1.8,4.74,4.74,0,0,0,.8-2.84q0-2.9-3.83-4.33a75.3,75.3,0,0,0-10.69-2.89q-2.8-.63-5.47-1.49A18.56,18.56,0,0,1,34,129.91a10.77,10.77,0,0,1-3.33-3.52,9.88,9.88,0,0,1-1.27-5.19,14.07,14.07,0,0,1,1.76-7.4,13,13,0,0,1,4.65-4.55,20.21,20.21,0,0,1,6.5-2.35,40.1,40.1,0,0,1,7.4-.68,37,37,0,0,1,7.35.72,19.64,19.64,0,0,1,6.36,2.44,14.46,14.46,0,0,1,4.65,4.56,15.22,15.22,0,0,1,2.22,7.17H58.09c-.18-2.47-1.12-4.13-2.81-5a12.77,12.77,0,0,0-6-1.3,22,22,0,0,0-2.35.13,7.85,7.85,0,0,0-2.3.59,4.76,4.76,0,0,0-1.76,1.31,3.46,3.46,0,0,0-.72,2.3,3.54,3.54,0,0,0,1.26,2.8,9.69,9.69,0,0,0,3.3,1.75,38.67,38.67,0,0,0,4.65,1.23q2.61.54,5.32,1.17a53.54,53.54,0,0,1,5.46,1.53A18.18,18.18,0,0,1,66.93,130a11.82,11.82,0,0,1,3.34,3.7,10.91,10.91,0,0,1,1.26,5.46,14.93,14.93,0,0,1-1.85,7.72,14.76,14.76,0,0,1-4.83,5A19.82,19.82,0,0,1,58,154.55a39.85,39.85,0,0,1-7.81.77,38.68,38.68,0,0,1-7.94-.81,20.91,20.91,0,0,1-6.9-2.71,15.35,15.35,0,0,1-5-5A15.64,15.64,0,0,1,28.3,139H40.48A7.07,7.07,0,0,0,41.34,142.55Z"/><path class="cls-2" d="M101.86,107.48v8.58H92.47v23.1c0,2.17.36,3.61,1.08,4.34s2.17,1.08,4.33,1.08c.72,0,1.41,0,2.08-.09a18.49,18.49,0,0,0,1.9-.27v9.93a30.77,30.77,0,0,1-3.62.36c-1.32.06-2.61.09-3.88.09a37.59,37.59,0,0,1-5.64-.41A13.13,13.13,0,0,1,84,152.61a8.25,8.25,0,0,1-3.2-3.34,11.81,11.81,0,0,1-1.18-5.68V116.06H71.89v-8.58h7.76v-14H92.47v14Z"/><polygon class="cls-2" points="119.18 89.7 119.18 124.27 135.34 107.48 150.5 107.48 132.9 124.63 152.49 154.15 136.96 154.15 124.14 133.3 119.18 138.08 119.18 154.15 106.36 154.15 106.36 89.7 119.18 89.7"/><path class="cls-2" d="M166.38,107.48v8.67h.18a15.84,15.84,0,0,1,2.44-4,16.27,16.27,0,0,1,3.52-3.16,17.78,17.78,0,0,1,4.24-2,15.34,15.34,0,0,1,4.7-.72,10,10,0,0,1,2.79.45v11.92a21.14,21.14,0,0,0-2.16-.32,23,23,0,0,0-2.44-.14,13.73,13.73,0,0,0-6,1.18,10.32,10.32,0,0,0-3.92,3.2,13.07,13.07,0,0,0-2.13,4.74,26.5,26.5,0,0,0-.62,5.87v21H154.2V107.48Z"/><path class="cls-2" d="M197.3,142.55a7.38,7.38,0,0,0,2.21,2.43,9.29,9.29,0,0,0,3.11,1.4,14.74,14.74,0,0,0,3.66.45,13.61,13.61,0,0,0,2.83-.31,9.21,9.21,0,0,0,2.71-1,6,6,0,0,0,2-1.8,4.74,4.74,0,0,0,.81-2.84q0-2.9-3.83-4.33a75.88,75.88,0,0,0-10.7-2.89q-2.8-.63-5.47-1.49a18.33,18.33,0,0,1-4.73-2.26,10.8,10.8,0,0,1-3.34-3.52,10,10,0,0,1-1.26-5.19,14.17,14.17,0,0,1,1.75-7.4,13.07,13.07,0,0,1,4.65-4.55,20.3,20.3,0,0,1,6.5-2.35,40.26,40.26,0,0,1,7.4-.68,37.12,37.12,0,0,1,7.36.72,19.64,19.64,0,0,1,6.36,2.44,14.56,14.56,0,0,1,4.65,4.56,15.33,15.33,0,0,1,2.21,7.17H214c-.18-2.47-1.12-4.13-2.8-5a12.84,12.84,0,0,0-6-1.3,22,22,0,0,0-2.34.13,7.91,7.91,0,0,0-2.31.59,4.76,4.76,0,0,0-1.76,1.31,3.46,3.46,0,0,0-.72,2.3,3.57,3.57,0,0,0,1.26,2.8,9.79,9.79,0,0,0,3.3,1.75,38.67,38.67,0,0,0,4.65,1.23c1.74.36,3.52.75,5.32,1.17a54.27,54.27,0,0,1,5.46,1.53,17.87,17.87,0,0,1,4.74,2.39,11.7,11.7,0,0,1,3.34,3.7,10.81,10.81,0,0,1,1.26,5.46,14.12,14.12,0,0,1-6.68,12.73,19.74,19.74,0,0,1-6.81,2.66,39.85,39.85,0,0,1-7.81.77,38.82,38.82,0,0,1-7.94-.81,21.09,21.09,0,0,1-6.9-2.71,15.35,15.35,0,0,1-5-5,15.75,15.75,0,0,1-2.12-7.81h12.19A7,7,0,0,0,197.3,142.55Z"/><path class="cls-3" d="M33.7,142.55A7.48,7.48,0,0,0,35.91,145a9.38,9.38,0,0,0,3.11,1.4,14.8,14.8,0,0,0,3.66.45,13.7,13.7,0,0,0,2.84-.31,9.31,9.31,0,0,0,2.71-1,6,6,0,0,0,2-1.8,4.74,4.74,0,0,0,.81-2.84c0-1.93-1.27-3.37-3.83-4.33a75.12,75.12,0,0,0-10.7-2.89q-2.79-.63-5.46-1.49a18.33,18.33,0,0,1-4.73-2.26A10.93,10.93,0,0,1,23,126.39a10,10,0,0,1-1.26-5.19,14.07,14.07,0,0,1,1.76-7.4,12.91,12.91,0,0,1,4.65-4.55,20.12,20.12,0,0,1,6.5-2.35,40.1,40.1,0,0,1,7.4-.68,36.94,36.94,0,0,1,7.35.72,19.78,19.78,0,0,1,6.37,2.44,14.66,14.66,0,0,1,4.65,4.56,15.33,15.33,0,0,1,2.21,7.17H50.44c-.18-2.47-1.11-4.13-2.79-5a12.87,12.87,0,0,0-6-1.3,22.16,22.16,0,0,0-2.35.13,7.85,7.85,0,0,0-2.3.59,4.76,4.76,0,0,0-1.76,1.31,3.46,3.46,0,0,0-.73,2.3,3.55,3.55,0,0,0,1.27,2.8,9.69,9.69,0,0,0,3.3,1.75,39,39,0,0,0,4.64,1.23c1.75.36,3.52.75,5.33,1.17a55,55,0,0,1,5.46,1.53A18,18,0,0,1,59.28,130a11.74,11.74,0,0,1,3.35,3.7,10.91,10.91,0,0,1,1.26,5.46A14.93,14.93,0,0,1,62,146.88a14.67,14.67,0,0,1-4.83,5,19.8,19.8,0,0,1-6.82,2.66,39.68,39.68,0,0,1-7.8.77,38.68,38.68,0,0,1-7.94-.81,21.06,21.06,0,0,1-6.91-2.71,15.33,15.33,0,0,1-5-5A15.75,15.75,0,0,1,20.66,139H32.85A7.07,7.07,0,0,0,33.7,142.55Z"/><path class="cls-3" d="M94.21,107.48v8.58H84.83v23.1c0,2.17.36,3.61,1.08,4.34s2.16,1.08,4.33,1.08c.72,0,1.42,0,2.08-.09a17.9,17.9,0,0,0,1.89-.27v9.93a30.59,30.59,0,0,1-3.61.36c-1.32.06-2.61.09-3.88.09a37.49,37.49,0,0,1-5.64-.41,13.31,13.31,0,0,1-4.7-1.58,8.45,8.45,0,0,1-3.2-3.34A11.93,11.93,0,0,1,72,143.59V116.06H64.25v-8.58H72v-14H84.83v14Z"/><polygon class="cls-3" points="111.54 89.7 111.54 124.27 127.7 107.48 142.86 107.48 125.26 124.63 144.84 154.15 129.32 154.15 116.51 133.3 111.54 138.08 111.54 154.15 98.72 154.15 98.72 89.7 111.54 89.7"/><path class="cls-3" d="M158.74,107.48v8.67h.18a15.84,15.84,0,0,1,2.44-4,16.27,16.27,0,0,1,3.52-3.16,17.6,17.6,0,0,1,4.24-2,15.37,15.37,0,0,1,4.69-.72,10.09,10.09,0,0,1,2.8.45l-.07,10.52c-.61-.12-1.2-.16-2-.25s-1.71,1.19-2.49,1.19a13.7,13.7,0,0,0-6,1.18,10.32,10.32,0,0,0-3.92,3.2,12.57,12.57,0,0,0-2.12,4.74,25.88,25.88,0,0,0-.64,5.87v21H146.56V107.48Z"/><path class="cls-3" d="M189.65,142.55a7.6,7.6,0,0,0,2.21,2.43,9.34,9.34,0,0,0,3.12,1.4,14.66,14.66,0,0,0,3.65.45,13.86,13.86,0,0,0,2.85-.31,9.36,9.36,0,0,0,2.7-1,6,6,0,0,0,2-1.8,4.75,4.75,0,0,0,.82-2.84q0-2.9-3.84-4.33a75.12,75.12,0,0,0-10.7-2.89q-2.79-.63-5.45-1.49a18.24,18.24,0,0,1-4.74-2.26,10.9,10.9,0,0,1-3.34-3.52,9.88,9.88,0,0,1-1.27-5.19,14,14,0,0,1,1.77-7.4,13,13,0,0,1,4.64-4.55,20.18,20.18,0,0,1,6.51-2.35,40.07,40.07,0,0,1,7.39-.68,37.12,37.12,0,0,1,7.36.72,19.72,19.72,0,0,1,6.36,2.44,14.56,14.56,0,0,1,4.65,4.56,15.33,15.33,0,0,1,2.21,7.17H206.39c-.18-2.47-1.11-4.13-2.79-5a12.84,12.84,0,0,0-6-1.3,22.16,22.16,0,0,0-2.35.13,7.93,7.93,0,0,0-2.3.59,4.84,4.84,0,0,0-1.76,1.31,3.46,3.46,0,0,0-.72,2.3,3.54,3.54,0,0,0,1.26,2.8,9.89,9.89,0,0,0,3.3,1.75,39,39,0,0,0,4.64,1.23q2.63.54,5.34,1.17a54.83,54.83,0,0,1,5.45,1.53,18,18,0,0,1,4.74,2.39,11.7,11.7,0,0,1,3.34,3.7,10.91,10.91,0,0,1,1.27,5.46,14.93,14.93,0,0,1-1.86,7.72,14.73,14.73,0,0,1-4.82,5,19.88,19.88,0,0,1-6.82,2.66,39.85,39.85,0,0,1-7.81.77,38.65,38.65,0,0,1-7.93-.81,20.88,20.88,0,0,1-6.91-2.71,15.33,15.33,0,0,1-5-5,15.64,15.64,0,0,1-2.13-7.81H188.8A7.07,7.07,0,0,0,189.65,142.55Z"/><path class="cls-4" d="M37.5,142.55A7.63,7.63,0,0,0,39.72,145a9.29,9.29,0,0,0,3.11,1.4,14.66,14.66,0,0,0,3.65.45,13.72,13.72,0,0,0,2.85-.31,9.25,9.25,0,0,0,2.7-1,6.08,6.08,0,0,0,2-1.8,4.74,4.74,0,0,0,.81-2.84q0-2.9-3.84-4.33a75.3,75.3,0,0,0-10.69-2.89q-2.81-.63-5.46-1.49a18.24,18.24,0,0,1-4.74-2.26,10.8,10.8,0,0,1-3.34-3.52,10,10,0,0,1-1.27-5.19,14,14,0,0,1,1.77-7.4A12.91,12.91,0,0,1,32,109.25a20.07,20.07,0,0,1,6.49-2.35,40.26,40.26,0,0,1,7.4-.68,37.12,37.12,0,0,1,7.36.72,19.72,19.72,0,0,1,6.36,2.44,14.56,14.56,0,0,1,4.65,4.56,15.33,15.33,0,0,1,2.21,7.17H54.25c-.18-2.47-1.12-4.13-2.8-5a12.81,12.81,0,0,0-6-1.3,22,22,0,0,0-2.34.13,7.91,7.91,0,0,0-2.31.59,4.84,4.84,0,0,0-1.76,1.31,3.46,3.46,0,0,0-.72,2.3,3.54,3.54,0,0,0,1.26,2.8,9.79,9.79,0,0,0,3.3,1.75,38.67,38.67,0,0,0,4.65,1.23c1.74.36,3.52.75,5.32,1.17a53.54,53.54,0,0,1,5.46,1.53A17.87,17.87,0,0,1,63.09,130a11.7,11.7,0,0,1,3.34,3.7,10.81,10.81,0,0,1,1.26,5.46A14.14,14.14,0,0,1,61,151.89a19.88,19.88,0,0,1-6.82,2.66,39.83,39.83,0,0,1-7.8.77,38.85,38.85,0,0,1-7.95-.81,20.91,20.91,0,0,1-6.9-2.71,15.35,15.35,0,0,1-5-5A15.75,15.75,0,0,1,24.46,139H36.65A7.07,7.07,0,0,0,37.5,142.55Z"/><path class="cls-4" d="M98,107.48v8.58H88.63v23.1c0,2.17.36,3.61,1.08,4.34s2.17,1.08,4.34,1.08c.72,0,1.41,0,2.08-.09a18.29,18.29,0,0,0,1.89-.27v9.93a30.81,30.81,0,0,1-3.61.36c-1.32.06-2.62.09-3.88.09a37.63,37.63,0,0,1-5.65-.41,13.19,13.19,0,0,1-4.69-1.58,8.31,8.31,0,0,1-3.2-3.34,11.81,11.81,0,0,1-1.17-5.68V116.06H68.05v-8.58h7.77v-14H88.63v14Z"/><polygon class="cls-4" points="115.34 89.7 115.34 124.27 131.5 107.48 146.66 107.48 129.06 124.63 148.65 154.15 133.13 154.15 120.31 133.3 115.34 138.08 115.34 154.15 102.53 154.15 102.53 89.7 115.34 89.7"/><path class="cls-4" d="M162.55,107.48v8.67h.18a15.8,15.8,0,0,1,2.43-4,16.27,16.27,0,0,1,3.52-3.16,17.6,17.6,0,0,1,4.24-2,15.39,15.39,0,0,1,4.7-.72,10.09,10.09,0,0,1,2.8.45v11.92a21.38,21.38,0,0,0-2.17-.32,22.9,22.9,0,0,0-2.44-.14,13.66,13.66,0,0,0-5.95,1.18,10.27,10.27,0,0,0-3.93,3.2,12.89,12.89,0,0,0-2.12,4.74,25.9,25.9,0,0,0-.63,5.87v21H150.36V107.48Z"/><path class="cls-4" d="M193.46,142.55a7.48,7.48,0,0,0,2.21,2.43,9.29,9.29,0,0,0,3.11,1.4,14.74,14.74,0,0,0,3.66.45,13.7,13.7,0,0,0,2.84-.31,9.42,9.42,0,0,0,2.71-1,6,6,0,0,0,2-1.8,4.75,4.75,0,0,0,.82-2.84c0-1.93-1.29-3.37-3.84-4.33a75.88,75.88,0,0,0-10.7-2.89q-2.79-.63-5.46-1.49a18.4,18.4,0,0,1-4.74-2.26,11,11,0,0,1-3.34-3.52,10,10,0,0,1-1.26-5.19,14.07,14.07,0,0,1,1.76-7.4,12.91,12.91,0,0,1,4.65-4.55,20.12,20.12,0,0,1,6.5-2.35,40.1,40.1,0,0,1,7.4-.68,37,37,0,0,1,7.35.72,19.78,19.78,0,0,1,6.37,2.44,14.53,14.53,0,0,1,4.64,4.56,15.45,15.45,0,0,1,2.22,7.17H210.2c-.18-2.47-1.11-4.13-2.79-5a12.87,12.87,0,0,0-6-1.3,22,22,0,0,0-2.35.13,7.85,7.85,0,0,0-2.3.59,4.68,4.68,0,0,0-1.76,1.31,3.41,3.41,0,0,0-.73,2.3,3.52,3.52,0,0,0,1.27,2.8,9.74,9.74,0,0,0,3.29,1.75,39.71,39.71,0,0,0,4.65,1.23c1.75.36,3.52.75,5.33,1.17a55,55,0,0,1,5.46,1.53A18,18,0,0,1,219,130a11.74,11.74,0,0,1,3.35,3.7,10.91,10.91,0,0,1,1.26,5.46,14.93,14.93,0,0,1-1.85,7.72,14.67,14.67,0,0,1-4.83,5,19.82,19.82,0,0,1-6.81,2.66,39.93,39.93,0,0,1-7.81.77,38.68,38.68,0,0,1-7.94-.81,21.06,21.06,0,0,1-6.91-2.71,15.33,15.33,0,0,1-5-5,15.64,15.64,0,0,1-2.12-7.81H192.6A7,7,0,0,0,193.46,142.55Z"/><path d="M242.62,86.77a10,10,0,0,0-4.55-6.24L237.2,80l-1.37-.83C198.54,57.09,159.25,35,119.05,13.54c-5.23-2.79-10.57-5.46-15.73-8-2.73-1.36-5.47-2.73-8.19-4.12A11.89,11.89,0,0,0,85.71.64,123.32,123.32,0,1,0,246.16,128.73,126.26,126.26,0,0,0,242.62,86.77Zm-91,141.33a113.49,113.49,0,0,1-134.53-70,111.69,111.69,0,0,1-7-47A113.85,113.85,0,0,1,88.17,10.32a3.61,3.61,0,0,1,3,.2c13.34,7,26.81,13.72,40,20.9,33.83,18.38,67.38,37.24,100.5,56.86a3.08,3.08,0,0,1,1.62,2.11,115.15,115.15,0,0,1,3.41,25.15C236.56,170.22,201.61,215.31,151.64,228.1Z"/></g></g></svg>