<?xml version="1.0" encoding="UTF-8"?>
<svg width="170px" height="115px" viewBox="0 0 170 115" version="1.1" xmlns="http://www.w3.org/2000/svg" xmlns:xlink="http://www.w3.org/1999/xlink">
    <!-- Generator: Sketch 55.2 (78181) - https://sketchapp.com -->
    <title>White Text</title>
    <desc>Created with Sketch.</desc>
    <defs>
        <linearGradient x1="100%" y1="50%" x2="3.4888836%" y2="50%" id="linearGradient-1">
            <stop stop-color="#1BBEFF" offset="0%"></stop>
            <stop stop-color="#16EFBE" offset="100%"></stop>
        </linearGradient>
        <linearGradient x1="99.634476%" y1="50%" x2="3.15403294%" y2="50%" id="linearGradient-2">
            <stop stop-color="#16EFBE" offset="0%"></stop>
            <stop stop-color="#1BBEFF" offset="100%"></stop>
        </linearGradient>
    </defs>
    <g id="Outlines" stroke="none" stroke-width="1" fill="none" fill-rule="evenodd">
        <g id="White-Text" fill-rule="nonzero">
            <path d="M224.105365,88 L209.412643,88 C208.143433,82.5720785 206.430108,77.6493609 204.347631,73.4668281 C200.45035,65.6393688 196.166215,62 193.099294,62 C191.893471,62 190.554052,62.2296128 189.069624,62.7145489 C181.131171,65.3078991 171.168469,74.3307516 160.930429,87.683025 C156.162871,93.900792 151.659028,100.611256 147.580474,107.325628 C146.803493,108.604744 146.073367,109.832745 145.393014,111 C146.073367,112.167255 146.803493,113.395256 147.580474,114.674372 C151.659028,121.388744 156.162871,128.099208 160.930429,134.316975 C171.168469,147.669248 181.131171,156.692101 189.069624,159.285451 C190.554052,159.770387 191.893471,160 193.099294,160 C196.166215,160 200.45035,156.360631 204.347631,148.533172 C206.430108,144.350639 208.143433,139.427921 209.412643,134 L224.105365,134 C219.383227,161.583081 206.149785,182 187.976897,182 C184.600188,182 181.217649,181.376257 177.85021,180.19292 C165.487843,175.848717 153.628278,164.29508 141.786915,147.683025 C138.638998,143.266862 135.628557,138.668876 132.782115,134.006338 C127.278675,145.161593 121.254047,156.275224 114.833932,166.741479 C98.355511,193.605066 81.986688,212.135867 64.9845223,219.078745 C60.3084558,220.988228 55.5868181,222 50.8586772,222 C19.9891559,222 9.9475983e-14,171.816193 9.9475983e-14,111 C9.9475983e-14,50.1838073 19.9891559,0 50.8586772,0 C55.5868181,0 60.3084558,1.01177151 64.9845223,2.92125527 C81.986688,9.86413334 98.355511,28.3949336 114.833932,55.2585214 C121.254047,65.7247755 127.278675,76.8384073 132.782115,87.9936621 C135.628557,83.3311237 138.638998,78.7331376 141.786915,74.316975 C153.628278,57.7049202 165.487843,46.1512833 177.85021,41.8070797 C181.217649,40.6237432 184.600188,40 187.976897,40 C206.149785,40 219.383227,60.4169189 224.105365,88 Z M114.202072,121.826635 C116.105888,117.908906 117.804877,114.269027 119.276912,111 C117.804877,107.730973 116.105888,104.091094 114.202072,100.173365 C108.653324,88.7549899 102.525604,77.3425579 96.0227849,66.7414786 C81.867124,43.6645194 67.9428757,27.9011707 56.6298291,23.2814591 C54.4969405,22.4104885 52.5813123,22 50.8586772,22 C45.8923479,22 38.8760016,29.4504742 32.9407362,44.3512642 C26.068437,61.6045258 22.0535864,85.4351158 22.0535864,111 C22.0535864,136.564884 26.068437,160.395474 32.9407362,177.648736 C38.8760016,192.549526 45.8923479,200 50.8586772,200 C52.5813123,200 54.4969405,199.589511 56.6298291,198.718541 C67.9428757,194.098829 81.867124,178.335481 96.0227849,155.258521 C102.525604,144.657442 108.653324,133.24501 114.202072,121.826635 Z" id="Combined-Shape" fill="url(#linearGradient-1)"></path>
            <path d="M215.559071,88 L196.195227,88 C195.253779,84.7574281 194.113758,81.7790639 192.801157,79.1462788 C189.489214,72.5032563 185.848518,69.4145901 183.242222,69.4145901 C182.217503,69.4145901 181.079253,69.6094583 179.817773,70.0210148 C173.071606,72.221944 164.605215,79.879475 155.904839,91.2113069 C151.853326,96.4882128 148.025921,102.183261 144.55993,107.881628 C143.899645,108.96719 143.279178,110.009372 142.701008,111 C143.279178,111.990628 143.899645,113.03281 144.55993,114.118372 C148.025921,119.816739 151.853326,125.511787 155.904839,130.788693 C164.605215,142.120525 173.071606,149.778056 179.817773,151.978985 C181.079253,152.390542 182.217503,152.58541 183.242222,152.58541 C185.848518,152.58541 189.489214,149.496744 192.801157,142.853721 C194.113758,140.220936 195.253779,137.242572 196.195227,134 L215.559071,134 C210.724717,155.626055 199.019979,171.25641 183.242222,171.25641 C180.155496,171.25641 177.063441,170.727051 173.985189,169.722775 C162.684469,166.035928 151.843373,156.230566 141.018915,142.132217 C138.113389,138.347905 135.335986,134.40627 132.711664,130.409768 C127.753285,140.561032 122.304594,150.69061 116.486562,160.213197 C101.995899,183.930599 87.6016127,200.291126 72.6503827,206.420874 C68.5383803,208.106724 64.386304,209 60.2285088,209 C33.0827134,209 15.5048077,164.693576 15.5048077,111 C15.5048077,57.3064244 33.0827134,13 60.2285088,13 C64.386304,13 68.5383803,13.8932757 72.6503827,15.5791263 C87.6016127,21.7088745 101.995899,38.0694008 116.486562,61.7868027 C122.304594,71.30939 127.753285,81.4389678 132.711664,91.5902322 C135.335986,87.5937298 138.113389,83.6520955 141.018915,79.8677831 C151.843373,65.7694339 162.684469,55.9640722 173.985189,52.2772255 C177.063441,51.2729493 180.155496,50.7435897 183.242222,50.7435897 C199.019979,50.7435897 210.724717,66.3739451 215.559071,88 Z M121.422609,110.900816 C120.203603,108.040271 118.799664,104.860674 117.228635,101.441349 C112.596821,91.3602614 107.481709,81.2844205 102.053485,71.9249091 C90.2370537,51.5506568 78.6137943,37.633466 69.1702343,33.5548017 C67.3898066,32.7858367 65.7907369,32.4234234 64.3527681,32.4234234 C60.2071272,32.4234234 54.3502356,39.0013196 49.3957758,52.156972 C43.6591275,67.3895813 40.3077329,88.4292013 40.3077329,111 C40.3077329,133.570799 43.6591275,154.610419 49.3957758,169.843028 C54.3502356,182.99868 60.2071272,189.576577 64.3527681,189.576577 C65.7907369,189.576577 67.3898066,189.214163 69.1702343,188.445198 C78.6137943,184.366534 90.2370537,170.449343 102.053485,150.075091 C107.481709,140.71558 112.596821,130.639739 117.228635,120.558651 C118.799664,117.139326 120.203603,113.959729 121.422609,111.099184 L121.370192,111 L121.422609,110.900816 Z" id="Combined-Shape" fill-opacity="0.75" fill="url(#linearGradient-2)"></path>
            <path d="M231.255859,134.642578 L234.302734,134.642578 L243.970703,149.818359 L244.029297,149.818359 L244.029297,134.642578 L247.266602,134.642578 L247.266602,156 L244.205078,156 L234.551758,140.824219 L234.493164,140.824219 L234.493164,156 L231.255859,156 L231.255859,134.642578 Z M254.045898,145.321289 C254.045898,142.840808 254.11914,141.180668 254.265625,140.34082 C254.421876,139.500972 254.661131,138.822268 254.983398,138.304688 C255.500979,137.318354 256.331049,136.439457 257.473633,135.667969 C258.596685,134.886715 259.998038,134.486328 261.677734,134.466797 C263.376962,134.486328 264.792963,134.886715 265.925781,135.667969 C267.048834,136.439457 267.859373,137.318354 268.357422,138.304688 C268.718752,138.822268 268.967773,139.500972 269.104492,140.34082 C269.231446,141.180668 269.294922,142.840808 269.294922,145.321289 C269.294922,147.762708 269.231446,149.413082 269.104492,150.272461 C268.967773,151.13184 268.718752,151.82031 268.357422,152.337891 C267.859373,153.324224 267.048834,154.193356 265.925781,154.945312 C264.792963,155.726566 263.376962,156.136719 261.677734,156.175781 C259.998038,156.136719 258.596685,155.726566 257.473633,154.945312 C256.331049,154.193356 255.500979,153.324224 254.983398,152.337891 C254.827148,152.015623 254.685548,151.708009 254.558594,151.415039 C254.441406,151.112303 254.34375,150.731448 254.265625,150.272461 C254.11914,149.413082 254.045898,147.762708 254.045898,145.321289 Z M257.297852,145.321289 C257.297852,147.420909 257.375976,148.841793 257.532227,149.583984 C257.668946,150.326176 257.947264,150.926756 258.367188,151.385742 C258.708986,151.825198 259.1582,152.181639 259.714844,152.455078 C260.261721,152.777345 260.916012,152.938477 261.677734,152.938477 C262.449223,152.938477 263.118161,152.777345 263.68457,152.455078 C264.221682,152.181639 264.651366,151.825198 264.973633,151.385742 C265.393557,150.926756 265.68164,150.326176 265.837891,149.583984 C265.984376,148.841793 266.057617,147.420909 266.057617,145.321289 C266.057617,143.221669 265.984376,141.791019 265.837891,141.029297 C265.68164,140.306637 265.393557,139.715823 264.973633,139.256836 C264.651366,138.817381 264.221682,138.451173 263.68457,138.158203 C263.118161,137.874999 262.449223,137.723633 261.677734,137.704102 C260.916012,137.723633 260.261721,137.874999 259.714844,138.158203 C259.1582,138.451173 258.708986,138.817381 258.367188,139.256836 C257.947264,139.715823 257.668946,140.306637 257.532227,141.029297 C257.375976,141.791019 257.297852,143.221669 257.297852,145.321289 Z M279.150391,137.52832 L273.305664,137.52832 L273.305664,134.642578 L288.24707,134.642578 L288.24707,137.52832 L282.402344,137.52832 L282.402344,156 L279.150391,156 L279.150391,137.52832 Z M297.150391,137.52832 L291.305664,137.52832 L291.305664,134.642578 L306.24707,134.642578 L306.24707,137.52832 L300.402344,137.52832 L300.402344,156 L297.150391,156 L297.150391,137.52832 Z M311.795898,150.814453 C313.495126,152.210944 315.51659,152.918945 317.860352,152.938477 C320.633803,152.899414 322.040039,151.908213 322.079102,149.964844 C322.098633,148.373039 321.170908,147.416017 319.295898,147.09375 C318.436519,146.976562 317.494146,146.844727 316.46875,146.698242 C314.632803,146.395506 313.236333,145.716802 312.279297,144.662109 C311.292964,143.57812 310.799805,142.259773 310.799805,140.707031 C310.799805,138.841788 311.419916,137.337896 312.660156,136.195312 C313.861334,135.062494 315.565419,134.486328 317.772461,134.466797 C320.428724,134.525391 322.738271,135.262688 324.701172,136.678711 L322.899414,139.344727 C321.297844,138.290034 319.535166,137.743164 317.611328,137.704102 C316.615229,137.704102 315.78516,137.953123 315.121094,138.451172 C314.427731,138.968753 314.071289,139.740229 314.051758,140.765625 C314.051758,141.380862 314.291013,141.937498 314.769531,142.435547 C315.248049,142.943362 316.014643,143.294921 317.069336,143.490234 C317.655276,143.587891 318.45605,143.700195 319.47168,143.827148 C321.473643,144.100587 322.95312,144.818354 323.910156,145.980469 C324.857427,147.123053 325.331055,148.451164 325.331055,149.964844 C325.223632,154.046895 322.723657,156.117187 317.831055,156.175781 C314.666976,156.175781 311.947277,155.199229 309.671875,153.246094 L311.795898,150.814453 Z" id="NOTTS" fill="#FFFFFF"></path>
            <path d="M167.007812,96.5234375 L176.96875,96.5234375 C180.822936,96.5494793 183.713532,98.1510258 185.640625,101.328125 C186.330733,102.395839 186.766926,103.515619 186.949219,104.6875 C187.092449,105.859381 187.164062,107.8841 187.164062,110.761719 C187.164062,113.82163 187.053387,115.957025 186.832031,117.167969 C186.727864,117.779951 186.571616,118.326821 186.363281,118.808594 C186.141926,119.277346 185.875002,119.765622 185.5625,120.273438 C184.729163,121.61459 183.57032,122.72135 182.085938,123.59375 C180.614576,124.531255 178.811209,125 176.675781,125 L167.007812,125 L167.007812,96.5234375 Z M171.324219,120.917969 L176.480469,120.917969 C178.902356,120.917969 180.660151,120.091154 181.753906,118.4375 C182.235679,117.825518 182.541666,117.050786 182.671875,116.113281 C182.789063,115.188797 182.847656,113.457044 182.847656,110.917969 C182.847656,108.443998 182.789063,106.673182 182.671875,105.605469 C182.515624,104.537755 182.144534,103.671878 181.558594,103.007812 C180.360671,101.354158 178.66798,100.553385 176.480469,100.605469 L171.324219,100.605469 L171.324219,120.917969 Z M197.203125,96.5234375 L215.386719,96.5234375 L215.386719,100.605469 L201.519531,100.605469 L201.519531,108.730469 L213.355469,108.730469 L213.355469,112.558594 L201.519531,112.558594 L201.519531,120.917969 L215.386719,120.917969 L215.386719,125 L197.203125,125 L197.203125,96.5234375 Z M221.480469,96.5234375 L226.050781,96.5234375 L232.515625,118.203125 L232.59375,118.203125 L239.078125,96.5234375 L243.648438,96.5234375 L234.234375,125 L230.875,125 L221.480469,96.5234375 Z M249.996094,110.761719 C249.996094,107.454411 250.093749,105.240891 250.289062,104.121094 C250.497397,103.001296 250.816404,102.096358 251.246094,101.40625 C251.936201,100.091139 253.042961,98.919276 254.566406,97.890625 C256.06381,96.8489531 257.93228,96.3151043 260.171875,96.2890625 C262.437511,96.3151043 264.325513,96.8489531 265.835938,97.890625 C267.333341,98.919276 268.414059,100.091139 269.078125,101.40625 C269.559898,102.096358 269.891926,103.001296 270.074219,104.121094 C270.24349,105.240891 270.328125,107.454411 270.328125,110.761719 C270.328125,114.016943 270.24349,116.217442 270.074219,117.363281 C269.891926,118.50912 269.559898,119.42708 269.078125,120.117188 C268.414059,121.432298 267.333341,122.591141 265.835938,123.59375 C264.325513,124.635422 262.437511,125.182291 260.171875,125.234375 C257.93228,125.182291 256.06381,124.635422 254.566406,123.59375 C253.042961,122.591141 251.936201,121.432298 251.246094,120.117188 C251.037759,119.687498 250.848959,119.277346 250.679688,118.886719 C250.523437,118.483071 250.39323,117.975263 250.289062,117.363281 C250.093749,116.217442 249.996094,114.016943 249.996094,110.761719 Z M254.332031,110.761719 C254.332031,113.561212 254.436197,115.455724 254.644531,116.445312 C254.826824,117.434901 255.197914,118.235674 255.757812,118.847656 C256.213544,119.433597 256.812496,119.908852 257.554688,120.273438 C258.283858,120.703127 259.156245,120.917969 260.171875,120.917969 C261.200526,120.917969 262.092444,120.703127 262.847656,120.273438 C263.563806,119.908852 264.136717,119.433597 264.566406,118.847656 C265.126305,118.235674 265.510416,117.434901 265.71875,116.445312 C265.914063,115.455724 266.011719,113.561212 266.011719,110.761719 C266.011719,107.962226 265.914063,106.054693 265.71875,105.039062 C265.510416,104.075516 265.126305,103.287763 264.566406,102.675781 C264.136717,102.089841 263.563806,101.601564 262.847656,101.210938 C262.092444,100.833331 261.200526,100.631511 260.171875,100.605469 C259.156245,100.631511 258.283858,100.833331 257.554688,101.210938 C256.812496,101.601564 256.213544,102.089841 255.757812,102.675781 C255.197914,103.287763 254.826824,104.075516 254.644531,105.039062 C254.436197,106.054693 254.332031,107.962226 254.332031,110.761719 Z M284.683594,109.804688 L291.070312,109.804688 C292.671883,109.778646 293.876298,109.283859 294.683594,108.320312 C295.451827,107.382808 295.835938,106.341152 295.835938,105.195312 C295.835938,104.244787 295.679689,103.444014 295.367188,102.792969 C295.041665,102.207028 294.58594,101.744793 294,101.40625 C293.114579,100.846351 292.085943,100.579427 290.914062,100.605469 L284.683594,100.605469 L284.683594,109.804688 Z M280.367188,96.5234375 L290.679688,96.5234375 C291.799485,96.5234375 292.880203,96.6276031 293.921875,96.8359375 C294.963547,97.1093764 296.018224,97.6692666 297.085938,98.515625 C297.984379,99.153649 298.713539,100.065098 299.273438,101.25 C299.859378,102.395839 300.152344,103.749992 300.152344,105.3125 C300.152344,107.421886 299.410164,109.342439 297.925781,111.074219 C296.402336,112.897145 294.175796,113.834635 291.246094,113.886719 L284.683594,113.886719 L284.683594,125 L280.367188,125 L280.367188,96.5234375 Z M309.429688,118.085938 C311.695324,119.947926 314.390609,120.891927 317.515625,120.917969 C321.21356,120.865885 323.088541,119.544284 323.140625,116.953125 C323.166667,114.830719 321.9297,113.55469 319.429688,113.125 C318.283848,112.968749 317.027351,112.79297 315.660156,112.597656 C313.212227,112.194008 311.350267,111.289062 310.074219,109.882812 C308.759108,108.437493 308.101562,106.679698 308.101562,104.609375 C308.101562,102.122383 308.928377,100.117195 310.582031,98.59375 C312.183602,97.0833258 314.455714,96.3151043 317.398438,96.2890625 C320.940122,96.3671879 324.019518,97.350251 326.636719,99.2382812 L324.234375,102.792969 C322.098948,101.386712 319.748711,100.657552 317.183594,100.605469 C315.855462,100.605469 314.748702,100.937497 313.863281,101.601562 C312.938797,102.29167 312.463542,103.320306 312.4375,104.6875 C312.4375,105.507817 312.756507,106.249997 313.394531,106.914062 C314.032555,107.591149 315.05468,108.059895 316.460938,108.320312 C317.242191,108.450521 318.309889,108.60026 319.664062,108.769531 C322.333347,109.134116 324.305983,110.091138 325.582031,111.640625 C326.845058,113.16407 327.476562,114.934886 327.476562,116.953125 C327.333333,122.395861 324.000033,125.15625 317.476562,125.234375 C313.257791,125.234375 309.631526,123.932305 306.597656,121.328125 L309.429688,118.085938 Z" id="DEVOPS" fill="#FFFFFF"></path>
        </g>
    </g>
</svg>