<?xml version="1.0" encoding="UTF-8"?>
<svg xmlns="http://www.w3.org/2000/svg" xmlns:xlink="http://www.w3.org/1999/xlink" width="169pt" height="115pt" viewBox="0 0 169 115" version="1.1">
<defs>
<linearGradient id="linear0" gradientUnits="userSpaceOnUse" x1="1" y1="0.5" x2="0.0348888" y2="0.5" gradientTransform="matrix(115.46875,0,0,115,0,0)">
<stop offset="0" style="stop-color:rgb(10.588235%,74.509804%,100%);stop-opacity:1;"/>
<stop offset="1" style="stop-color:rgb(8.627451%,93.72549%,74.509804%);stop-opacity:1;"/>
</linearGradient>
<linearGradient id="linear1" gradientUnits="userSpaceOnUse" x1="0.996345" y1="0.5" x2="0.0315403" y2="0.5" gradientTransform="matrix(103.078125,0,0,101.53125,7.988281,6.734375)">
<stop offset="0" style="stop-color:rgb(8.627451%,93.72549%,74.509804%);stop-opacity:0.74902;"/>
<stop offset="1" style="stop-color:rgb(10.588235%,74.509804%,100%);stop-opacity:0.74902;"/>
</linearGradient>
</defs>
<g id="surface1">
<path style=" stroke:none;fill-rule:nonzero;fill:url(#linear0);" d="M 115.46875 45.585938 L 107.898438 45.585938 C 107.246094 42.773438 106.363281 40.222656 105.289062 38.058594 C 103.28125 34.003906 101.074219 32.117188 99.492188 32.117188 C 98.871094 32.117188 98.183594 32.234375 97.417969 32.488281 C 93.328125 33.832031 88.195312 38.503906 82.917969 45.421875 C 80.460938 48.640625 78.140625 52.117188 76.039062 55.597656 C 75.640625 56.257812 75.261719 56.894531 74.914062 57.5 C 75.261719 58.105469 75.640625 58.742188 76.039062 59.402344 C 78.140625 62.882812 80.460938 66.359375 82.917969 69.578125 C 88.195312 76.496094 93.328125 81.167969 97.417969 82.511719 C 98.183594 82.765625 98.871094 82.882812 99.492188 82.882812 C 101.074219 82.882812 103.28125 80.996094 105.289062 76.941406 C 106.363281 74.777344 107.246094 72.226562 107.898438 69.414062 L 115.46875 69.414062 C 113.035156 83.703125 106.21875 94.277344 96.855469 94.277344 C 95.113281 94.277344 93.371094 93.957031 91.636719 93.34375 C 85.265625 91.09375 79.15625 85.109375 73.054688 76.503906 C 71.433594 74.214844 69.882812 71.832031 68.414062 69.417969 C 65.578125 75.195312 62.476562 80.953125 59.167969 86.375 C 50.675781 100.289062 42.242188 109.890625 33.484375 113.488281 C 31.074219 114.476562 28.640625 115 26.203125 115 C 10.300781 115 0 89.003906 0 57.5 C 0 25.996094 10.300781 0 26.203125 0 C 28.640625 0 31.074219 0.523438 33.484375 1.511719 C 42.242188 5.109375 50.675781 14.710938 59.167969 28.625 C 62.476562 34.046875 65.578125 39.804688 68.414062 45.582031 C 69.882812 43.167969 71.433594 40.785156 73.054688 38.496094 C 79.15625 29.890625 85.265625 23.90625 91.636719 21.65625 C 93.371094 21.042969 95.113281 20.722656 96.855469 20.722656 C 106.21875 20.722656 113.035156 31.296875 115.46875 45.585938 Z M 58.84375 63.109375 C 59.824219 61.078125 60.699219 59.195312 61.457031 57.5 C 60.699219 55.804688 59.824219 53.921875 58.84375 51.890625 C 55.984375 45.976562 52.824219 40.066406 49.476562 34.574219 C 42.179688 22.617188 35.007812 14.453125 29.179688 12.058594 C 28.078125 11.609375 27.09375 11.394531 26.203125 11.394531 C 23.644531 11.394531 20.03125 15.257812 16.972656 22.976562 C 13.429688 31.914062 11.363281 44.257812 11.363281 57.5 C 11.363281 70.742188 13.429688 83.085938 16.972656 92.023438 C 20.03125 99.742188 23.644531 103.605469 26.203125 103.605469 C 27.09375 103.605469 28.078125 103.390625 29.179688 102.941406 C 35.007812 100.546875 42.179688 92.382812 49.476562 80.425781 C 52.824219 74.933594 55.984375 69.023438 58.84375 63.109375 Z M 58.84375 63.109375 "/>
<path style=" stroke:none;fill-rule:nonzero;fill:url(#linear1);" d="M 111.066406 45.585938 L 101.089844 45.585938 C 100.601562 43.90625 100.015625 42.363281 99.339844 41 C 97.632812 37.558594 95.757812 35.957031 94.414062 35.957031 C 93.886719 35.957031 93.300781 36.058594 92.648438 36.273438 C 89.175781 37.414062 84.8125 41.378906 80.328125 47.25 C 78.242188 49.984375 76.269531 52.933594 74.484375 55.882812 C 74.144531 56.445312 73.824219 56.988281 73.527344 57.5 C 73.824219 58.011719 74.144531 58.554688 74.484375 59.117188 C 76.269531 62.066406 78.242188 65.015625 80.328125 67.75 C 84.8125 73.621094 89.175781 77.585938 92.648438 78.726562 C 93.300781 78.941406 93.886719 79.042969 94.414062 79.042969 C 95.757812 79.042969 97.632812 77.441406 99.339844 74 C 100.015625 72.636719 100.601562 71.09375 101.089844 69.414062 L 111.066406 69.414062 C 108.574219 80.617188 102.542969 88.714844 94.414062 88.714844 C 92.824219 88.714844 91.230469 88.441406 89.644531 87.917969 C 83.820312 86.007812 78.238281 80.929688 72.660156 73.628906 C 71.160156 71.667969 69.730469 69.625 68.378906 67.554688 C 65.824219 72.8125 63.015625 78.058594 60.019531 82.992188 C 52.554688 95.28125 45.136719 103.753906 37.433594 106.929688 C 35.3125 107.804688 33.175781 108.265625 31.03125 108.265625 C 17.046875 108.265625 7.988281 85.3125 7.988281 57.5 C 7.988281 29.6875 17.046875 6.734375 31.03125 6.734375 C 33.175781 6.734375 35.3125 7.195312 37.433594 8.070312 C 45.136719 11.246094 52.554688 19.71875 60.019531 32.007812 C 63.015625 36.941406 65.824219 42.1875 68.378906 47.445312 C 69.730469 45.375 71.160156 43.332031 72.660156 41.371094 C 78.238281 34.070312 83.820312 28.992188 89.644531 27.082031 C 91.230469 26.558594 92.824219 26.285156 94.414062 26.285156 C 102.542969 26.285156 108.574219 34.382812 111.066406 45.585938 Z M 62.5625 57.449219 C 61.933594 55.96875 61.210938 54.320312 60.402344 52.546875 C 58.015625 47.328125 55.378906 42.105469 52.582031 37.257812 C 46.492188 26.703125 40.503906 19.496094 35.640625 17.382812 C 34.722656 16.984375 33.898438 16.796875 33.15625 16.796875 C 31.019531 16.796875 28.003906 20.203125 25.449219 27.019531 C 22.496094 34.910156 20.769531 45.808594 20.769531 57.5 C 20.769531 69.191406 22.496094 80.089844 25.449219 87.980469 C 28.003906 94.796875 31.019531 98.203125 33.15625 98.203125 C 33.898438 98.203125 34.722656 98.015625 35.640625 97.617188 C 40.503906 95.503906 46.492188 88.296875 52.582031 77.742188 C 55.378906 72.894531 58.015625 67.671875 60.402344 62.453125 C 61.210938 60.679688 61.933594 59.03125 62.5625 57.550781 L 62.535156 57.5 Z M 62.5625 57.449219 "/>
<path style=" stroke:none;fill-rule:nonzero;fill:rgb(100%,100%,100%);fill-opacity:1;" d="M 119.152344 69.746094 L 120.722656 69.746094 L 125.703125 77.609375 L 125.734375 77.609375 L 125.734375 69.746094 L 127.402344 69.746094 L 127.402344 80.8125 L 125.824219 80.8125 L 120.851562 72.949219 L 120.820312 72.949219 L 120.820312 80.8125 L 119.152344 80.8125 Z M 130.894531 75.277344 C 130.894531 73.992188 130.933594 73.132812 131.007812 72.699219 C 131.089844 72.265625 131.210938 71.914062 131.378906 71.644531 C 131.644531 71.132812 132.074219 70.679688 132.660156 70.277344 C 133.242188 69.875 133.960938 69.667969 134.828125 69.65625 C 135.703125 69.667969 136.433594 69.875 137.015625 70.277344 C 137.59375 70.679688 138.011719 71.132812 138.269531 71.644531 C 138.457031 71.914062 138.585938 72.265625 138.65625 72.699219 C 138.71875 73.132812 138.753906 73.992188 138.753906 75.277344 C 138.753906 76.542969 138.71875 77.398438 138.65625 77.84375 C 138.585938 78.289062 138.457031 78.644531 138.269531 78.914062 C 138.011719 79.425781 137.59375 79.875 137.015625 80.265625 C 136.433594 80.667969 135.703125 80.882812 134.828125 80.902344 C 133.960938 80.882812 133.242188 80.667969 132.660156 80.265625 C 132.074219 79.875 131.644531 79.425781 131.378906 78.914062 C 131.296875 78.746094 131.226562 78.585938 131.160156 78.4375 C 131.097656 78.277344 131.050781 78.082031 131.007812 77.84375 C 130.933594 77.398438 130.894531 76.542969 130.894531 75.277344 Z M 132.570312 75.277344 C 132.570312 76.367188 132.613281 77.101562 132.691406 77.488281 C 132.761719 77.871094 132.90625 78.183594 133.121094 78.421875 C 133.296875 78.648438 133.53125 78.832031 133.816406 78.972656 C 134.097656 79.140625 134.433594 79.226562 134.828125 79.226562 C 135.226562 79.226562 135.570312 79.140625 135.863281 78.972656 C 136.136719 78.832031 136.359375 78.648438 136.527344 78.421875 C 136.742188 78.183594 136.890625 77.871094 136.972656 77.488281 C 137.046875 77.101562 137.085938 76.367188 137.085938 75.277344 C 137.085938 74.191406 137.046875 73.449219 136.972656 73.054688 C 136.890625 72.679688 136.742188 72.375 136.527344 72.136719 C 136.359375 71.910156 136.136719 71.71875 135.863281 71.570312 C 135.570312 71.421875 135.226562 71.34375 134.828125 71.332031 C 134.433594 71.34375 134.097656 71.421875 133.816406 71.570312 C 133.53125 71.71875 133.296875 71.910156 133.121094 72.136719 C 132.90625 72.375 132.761719 72.679688 132.691406 73.054688 C 132.613281 73.449219 132.570312 74.191406 132.570312 75.277344 Z M 143.832031 71.242188 L 140.820312 71.242188 L 140.820312 69.746094 L 148.515625 69.746094 L 148.515625 71.242188 L 145.507812 71.242188 L 145.507812 80.8125 L 143.832031 80.8125 Z M 153.105469 71.242188 L 150.09375 71.242188 L 150.09375 69.746094 L 157.792969 69.746094 L 157.792969 71.242188 L 154.78125 71.242188 L 154.78125 80.8125 L 153.105469 80.8125 Z M 160.652344 78.125 C 161.527344 78.847656 162.566406 79.214844 163.777344 79.226562 C 165.203125 79.203125 165.929688 78.691406 165.949219 77.683594 C 165.960938 76.859375 165.480469 76.363281 164.515625 76.195312 C 164.074219 76.136719 163.585938 76.066406 163.058594 75.992188 C 162.113281 75.835938 161.394531 75.484375 160.898438 74.9375 C 160.390625 74.375 160.136719 73.691406 160.136719 72.890625 C 160.136719 71.921875 160.457031 71.144531 161.097656 70.550781 C 161.714844 69.964844 162.59375 69.667969 163.730469 69.65625 C 165.097656 69.6875 166.289062 70.070312 167.300781 70.800781 L 166.371094 72.183594 C 165.546875 71.636719 164.636719 71.351562 163.648438 71.332031 C 163.132812 71.332031 162.707031 71.460938 162.363281 71.71875 C 162.007812 71.988281 161.824219 72.386719 161.8125 72.917969 C 161.8125 73.238281 161.9375 73.527344 162.183594 73.785156 C 162.429688 74.046875 162.824219 74.230469 163.367188 74.332031 C 163.671875 74.382812 164.082031 74.4375 164.605469 74.503906 C 165.636719 74.648438 166.398438 75.019531 166.894531 75.621094 C 167.378906 76.210938 167.625 76.898438 167.625 77.683594 C 167.570312 79.800781 166.28125 80.871094 163.761719 80.902344 C 162.128906 80.902344 160.730469 80.394531 159.554688 79.382812 Z M 160.652344 78.125 "/>
<path style=" stroke:none;fill-rule:nonzero;fill:rgb(100%,100%,100%);fill-opacity:1;" d="M 86.050781 50 L 91.183594 50 C 93.167969 50.015625 94.65625 50.84375 95.648438 52.488281 C 96.003906 53.042969 96.230469 53.621094 96.324219 54.230469 C 96.398438 54.835938 96.433594 55.886719 96.433594 57.375 C 96.433594 58.960938 96.378906 60.066406 96.265625 60.695312 C 96.210938 61.011719 96.128906 61.296875 96.023438 61.546875 C 95.910156 61.789062 95.769531 62.039062 95.609375 62.304688 C 95.179688 63 94.582031 63.570312 93.820312 64.023438 C 93.0625 64.507812 92.132812 64.753906 91.03125 64.753906 L 86.050781 64.753906 Z M 88.273438 62.636719 L 90.929688 62.636719 C 92.179688 62.636719 93.085938 62.210938 93.648438 61.351562 C 93.894531 61.035156 94.054688 60.632812 94.121094 60.148438 C 94.179688 59.667969 94.210938 58.773438 94.210938 57.457031 C 94.210938 56.175781 94.179688 55.257812 94.121094 54.707031 C 94.039062 54.152344 93.847656 53.703125 93.546875 53.359375 C 92.929688 52.503906 92.058594 52.089844 90.929688 52.117188 L 88.273438 52.117188 Z M 101.609375 50 L 110.976562 50 L 110.976562 52.117188 L 103.832031 52.117188 L 103.832031 56.324219 L 109.929688 56.324219 L 109.929688 58.308594 L 103.832031 58.308594 L 103.832031 62.636719 L 110.976562 62.636719 L 110.976562 64.753906 L 101.609375 64.753906 Z M 114.117188 50 L 116.472656 50 L 119.800781 61.230469 L 119.84375 61.230469 L 123.183594 50 L 125.539062 50 L 120.6875 64.753906 L 118.957031 64.753906 Z M 128.808594 57.375 C 128.808594 55.664062 128.859375 54.515625 128.960938 53.9375 C 129.066406 53.355469 129.230469 52.886719 129.453125 52.53125 C 129.808594 51.847656 130.378906 51.242188 131.164062 50.710938 C 131.933594 50.167969 132.898438 49.894531 134.050781 49.878906 C 135.21875 49.894531 136.191406 50.167969 136.96875 50.710938 C 137.742188 51.242188 138.296875 51.847656 138.640625 52.53125 C 138.890625 52.886719 139.058594 53.355469 139.152344 53.9375 C 139.242188 54.515625 139.285156 55.664062 139.285156 57.375 C 139.285156 59.0625 139.242188 60.203125 139.152344 60.796875 C 139.058594 61.390625 138.890625 61.867188 138.640625 62.222656 C 138.296875 62.902344 137.742188 63.503906 136.96875 64.023438 C 136.191406 64.5625 135.21875 64.847656 134.050781 64.875 C 132.898438 64.847656 131.933594 64.5625 131.164062 64.023438 C 130.378906 63.503906 129.808594 62.902344 129.453125 62.222656 C 129.34375 62 129.25 61.789062 129.160156 61.585938 C 129.082031 61.375 129.011719 61.113281 128.960938 60.796875 C 128.859375 60.203125 128.808594 59.0625 128.808594 57.375 Z M 131.042969 57.375 C 131.042969 58.828125 131.097656 59.808594 131.203125 60.320312 C 131.296875 60.832031 131.488281 61.25 131.777344 61.566406 C 132.011719 61.867188 132.320312 62.113281 132.703125 62.304688 C 133.078125 62.527344 133.527344 62.636719 134.050781 62.636719 C 134.582031 62.636719 135.042969 62.527344 135.429688 62.304688 C 135.800781 62.113281 136.09375 61.867188 136.316406 61.566406 C 136.605469 61.25 136.800781 60.832031 136.910156 60.320312 C 137.011719 59.808594 137.0625 58.828125 137.0625 57.375 C 137.0625 55.925781 137.011719 54.9375 136.910156 54.414062 C 136.800781 53.914062 136.605469 53.503906 136.316406 53.1875 C 136.09375 52.882812 135.800781 52.632812 135.429688 52.429688 C 135.042969 52.234375 134.582031 52.128906 134.050781 52.117188 C 133.527344 52.128906 133.078125 52.234375 132.703125 52.429688 C 132.320312 52.632812 132.011719 52.882812 131.777344 53.1875 C 131.488281 53.503906 131.296875 53.914062 131.203125 54.414062 C 131.097656 54.9375 131.042969 55.925781 131.042969 57.375 Z M 146.679688 56.878906 L 149.972656 56.878906 C 150.796875 56.867188 151.417969 56.609375 151.832031 56.113281 C 152.230469 55.625 152.425781 55.085938 152.425781 54.492188 C 152.425781 54 152.347656 53.585938 152.1875 53.25 C 152.019531 52.945312 151.785156 52.707031 151.480469 52.53125 C 151.027344 52.238281 150.496094 52.101562 149.890625 52.117188 L 146.679688 52.117188 Z M 144.457031 50 L 149.769531 50 C 150.347656 50 150.90625 50.054688 151.441406 50.164062 C 151.976562 50.304688 152.523438 50.59375 153.070312 51.03125 C 153.535156 51.363281 153.910156 51.835938 154.199219 52.449219 C 154.5 53.042969 154.652344 53.746094 154.652344 54.554688 C 154.652344 55.644531 154.269531 56.640625 153.503906 57.539062 C 152.71875 58.484375 151.574219 58.96875 150.0625 58.996094 L 146.679688 58.996094 L 146.679688 64.753906 L 144.457031 64.753906 Z M 159.433594 61.171875 C 160.597656 62.136719 161.988281 62.625 163.597656 62.636719 C 165.503906 62.609375 166.46875 61.925781 166.496094 60.582031 C 166.507812 59.484375 165.871094 58.824219 164.585938 58.601562 C 163.992188 58.519531 163.347656 58.429688 162.640625 58.328125 C 161.378906 58.117188 160.421875 57.648438 159.765625 56.921875 C 159.085938 56.171875 158.746094 55.261719 158.746094 54.191406 C 158.746094 52.902344 159.171875 51.863281 160.027344 51.074219 C 160.851562 50.289062 162.019531 49.894531 163.539062 49.878906 C 165.363281 49.921875 166.949219 50.429688 168.296875 51.40625 L 167.058594 53.25 C 165.960938 52.519531 164.75 52.140625 163.425781 52.117188 C 162.742188 52.117188 162.171875 52.289062 161.714844 52.632812 C 161.238281 52.988281 160.996094 53.523438 160.980469 54.230469 C 160.980469 54.65625 161.144531 55.039062 161.476562 55.382812 C 161.804688 55.734375 162.328125 55.976562 163.054688 56.113281 C 163.457031 56.179688 164.007812 56.257812 164.703125 56.34375 C 166.082031 56.535156 167.097656 57.027344 167.753906 57.832031 C 168.40625 58.621094 168.730469 59.539062 168.730469 60.582031 C 168.65625 63.402344 166.9375 64.832031 163.578125 64.875 C 161.402344 64.875 159.535156 64.199219 157.972656 62.851562 Z M 159.433594 61.171875 "/>
</g>
</svg>
